<?xml version="1.0" encoding="utf-8"?>
<!-- Generator: Adobe Illustrator 27.8.1, SVG Export Plug-In . SVG Version: 6.00 Build 0)  -->
<svg version="1.1" id="Capa_1" xmlns="http://www.w3.org/2000/svg" xmlns:xlink="http://www.w3.org/1999/xlink" x="0px" y="0px"
	 viewBox="0 0 600 600" style="enable-background:new 0 0 600 600;" xml:space="preserve">
<g id="SVGRepo_bgCarrier">
</g>
<g id="SVGRepo_tracerCarrier">
</g>
<g id="SVGRepo_iconCarrier">
	<g>
		<g>
			<g>
				<path d="M511.78,88.23c-27.49-27.49-59.52-49.08-95.19-64.17C379.64,8.43,340.41,0.5,300,0.5c-40.41,0-79.64,7.92-116.59,23.55
					c-35.67,15.09-67.69,36.68-95.18,64.17c-27.49,27.49-49.08,59.52-64.17,95.18C8.43,220.36,0.5,259.59,0.5,300
					s7.92,79.64,23.55,116.59c15.09,35.67,36.68,67.69,64.17,95.19c27.49,27.49,59.52,49.08,95.18,64.17
					c36.95,15.63,76.18,23.55,116.59,23.55c40.41,0,79.64-7.92,116.59-23.55c35.67-15.09,67.69-36.68,95.19-64.17
					c27.49-27.49,49.08-59.52,64.17-95.19c15.63-36.95,23.55-76.18,23.55-116.59s-7.92-79.64-23.55-116.59
					C560.86,147.74,539.27,115.72,511.78,88.23z M300,556.3C158.45,556.3,43.7,441.55,43.7,300C43.7,158.45,158.45,43.7,300,43.7
					c141.55,0,256.3,114.75,256.3,256.3C556.3,441.55,441.55,556.3,300,556.3z"/>
				<path d="M300,600c-40.48,0-79.77-7.94-116.79-23.59c-35.73-15.11-67.81-36.74-95.34-64.27c-27.54-27.54-49.16-59.62-64.28-95.35
					C7.94,379.77,0,340.48,0,300c0-40.48,7.94-79.77,23.59-116.79c15.11-35.73,36.74-67.81,64.28-95.34
					c27.54-27.54,59.61-49.16,95.34-64.28C220.23,7.94,259.52,0,300,0c40.48,0,79.77,7.94,116.79,23.59
					c35.73,15.11,67.81,36.74,95.35,64.28c27.54,27.54,49.16,59.62,64.27,95.34C592.06,220.23,600,259.52,600,300
					c0,40.48-7.94,79.77-23.59,116.79c-15.11,35.73-36.74,67.81-64.27,95.35c-27.54,27.54-59.62,49.16-95.35,64.27
					C379.77,592.06,340.48,600,300,600z M300,1.01c-40.35,0-79.51,7.91-116.39,23.51C148,39.58,116.02,61.14,88.58,88.58
					c-27.45,27.44-49,59.42-64.06,95.02C8.92,220.49,1.01,259.65,1.01,300s7.91,79.51,23.51,116.39
					c15.06,35.61,36.61,67.58,64.06,95.02c27.44,27.44,59.42,49,95.02,64.06c36.89,15.6,76.05,23.51,116.39,23.51
					c40.35,0,79.51-7.91,116.39-23.51c35.61-15.06,67.58-36.61,95.02-64.06c27.45-27.45,49-59.42,64.06-95.02
					c15.6-36.89,23.51-76.05,23.51-116.39c0-40.35-7.91-79.51-23.51-116.39c-15.06-35.61-36.61-67.58-64.06-95.02
					c-27.44-27.44-59.42-49-95.02-64.06C379.51,8.92,340.35,1.01,300,1.01z M300,556.8c-68.59,0-133.08-26.71-181.59-75.22
					C69.91,433.08,43.2,368.59,43.2,300c0-68.59,26.71-133.08,75.22-181.59S231.41,43.2,300,43.2c68.59,0,133.08,26.71,181.59,75.22
					c48.5,48.5,75.22,112.99,75.22,181.59c0,68.59-26.71,133.08-75.22,181.59C433.08,530.09,368.59,556.8,300,556.8z M300,44.21
					c-68.32,0-132.56,26.61-180.87,74.92S44.21,231.68,44.21,300s26.61,132.56,74.92,180.87c48.31,48.31,112.55,74.92,180.87,74.92
					s132.56-26.61,180.87-74.92S555.79,368.33,555.79,300s-26.61-132.56-74.92-180.87C432.56,70.81,368.33,44.21,300,44.21z"/>
			</g>
		</g>
	</g>
</g>
</svg>
